<svg width="24" height="24" viewBox="0 0 24 24" fill="none" xmlns="http://www.w3.org/2000/svg">
  <path fill-rule="evenodd" clip-rule="evenodd"
    d="M6.41743 5.25C4.39121 5.25 3.23461 7.56321 4.45034 9.18418C4.96922 9.87601 5.24971 10.7175 5.24971 11.5823V18C5.24971 20.6234 7.37635 22.75 9.99971 22.75H13.9997C16.6231 22.75 18.7497 20.6234 18.7497 18V11.5823C18.7497 10.7175 19.0302 9.87601 19.5491 9.18418C20.7648 7.56321 19.6082 5.25 17.582 5.25H6.41743ZM13.9995 10.25C14.4137 10.25 14.7495 10.5858 14.7495 11V17C14.7495 17.4142 14.4137 17.75 13.9995 17.75C13.5853 17.75 13.2495 17.4142 13.2495 17V11C13.2495 10.5858 13.5853 10.25 13.9995 10.25ZM10.7495 11C10.7495 10.5858 10.4137 10.25 9.99951 10.25C9.5853 10.25 9.24951 10.5858 9.24951 11L9.24951 17C9.24951 17.4142 9.5853 17.75 9.99951 17.75C10.4137 17.75 10.7495 17.4142 10.7495 17L10.7495 11Z"
    fill="currentColor" />
  <path
    d="M16 6L15.4558 4.36754C15.1836 3.55086 14.4193 3 13.5585 3H10.4415C9.58066 3 8.81638 3.55086 8.54415 4.36754L8 6"
    stroke="currentColor" stroke-width="1.5" stroke-linecap="round" />
</svg>